<?xml version="1.0" standalone="no"?>
<!DOCTYPE svg PUBLIC "-//W3C//DTD SVG 20010904//EN"
 "http://www.w3.org/TR/2001/REC-SVG-20010904/DTD/svg10.dtd">
<svg version="1.0" xmlns="http://www.w3.org/2000/svg"
 width="1024.000000pt" height="1024.000000pt" viewBox="0 0 1024.000000 1024.000000"
 preserveAspectRatio="xMidYMid meet">
<metadata>
Created by potrace 1.11, written by Peter Selinger 2001-2013
</metadata>
<g transform="translate(0.000000,1024.000000) scale(0.100000,-0.100000)"
fill="#000000" stroke="none">
<path d="M5118 10186 c-1 -2 -59 -6 -127 -10 -68 -4 -127 -8 -130 -10 -3 -2
-28 -7 -55 -10 -241 -33 -632 -204 -800 -351 -16 -14 -32 -25 -37 -25 -9 0
-203 -192 -251 -250 -21 -25 -46 -55 -57 -68 -18 -22 -22 -23 -103 -14 -135
15 -398 5 -503 -18 -22 -5 -53 -11 -70 -14 -16 -3 -40 -8 -52 -11 -13 -3 -31
-7 -41 -9 -68 -15 -226 -76 -329 -127 -284 -141 -489 -314 -691 -584 -28 -38
-91 -137 -110 -175 -12 -25 -26 -52 -31 -60 -24 -40 -91 -203 -105 -255 -2 -5
-6 -17 -9 -25 -10 -28 -46 -175 -53 -214 -3 -21 -8 -48 -10 -60 -17 -82 -22
-370 -9 -492 l7 -60 -57 -43 c-154 -117 -356 -354 -451 -531 -10 -19 -24 -42
-31 -50 -6 -8 -12 -19 -13 -25 0 -5 -14 -38 -30 -71 -68 -144 -125 -342 -145
-504 -4 -30 -9 -66 -11 -80 -5 -32 -6 -308 0 -335 2 -11 7 -49 11 -85 11 -101
76 -348 115 -435 63 -144 152 -306 202 -370 4 -5 34 -44 66 -85 94 -120 271
-287 380 -360 12 -8 24 -25 26 -36 14 -74 157 -401 186 -424 3 -3 17 -23 30
-45 72 -121 238 -308 365 -410 33 -26 62 -51 65 -55 7 -9 115 -81 174 -114
164 -95 384 -179 550 -212 20 -4 42 -8 111 -19 72 -12 168 -19 270 -18 103 0
262 10 274 18 3 2 31 6 61 10 178 21 469 136 660 260 89 57 211 151 218 165 3
8 62 0 63 -9 0 -3 1 -758 2 -1676 2 -1591 3 -1672 20 -1698 10 -16 30 -33 45
-39 17 -6 166 -10 419 -11 425 0 423 0 455 55 10 19 13 304 14 1431 l1 1408
63 59 c35 33 113 107 173 165 61 58 113 104 116 102 3 -1 56 -27 116 -56 61
-29 117 -57 125 -61 33 -16 220 -71 310 -90 127 -28 196 -34 380 -34 152 -1
199 3 310 23 30 6 69 13 85 16 38 6 252 72 268 82 7 4 18 8 26 10 19 2 238
112 254 126 7 7 24 18 37 26 110 61 351 274 431 381 15 19 42 55 61 80 93 125
207 344 254 490 20 62 36 92 58 112 17 15 36 27 41 28 19 1 199 171 280 264
28 32 56 64 63 71 6 8 12 16 12 20 0 3 9 16 21 28 33 36 134 206 177 297 78
169 137 372 157 536 4 33 9 68 11 79 5 26 5 304 0 330 -2 11 -7 47 -10 80 -14
119 -44 241 -93 380 -32 90 -152 335 -164 335 -5 0 -9 5 -9 10 0 11 -66 111
-105 159 -96 118 -214 237 -303 304 l-54 41 8 85 c10 108 10 283 0 381 -9 91
-41 258 -63 320 -8 25 -17 54 -19 66 -14 76 -118 294 -202 422 -150 231 -392
465 -597 578 -121 67 -166 90 -247 123 -272 113 -567 156 -889 129 l-87 -8
-27 42 c-28 42 -163 198 -200 231 -11 10 -35 32 -54 49 -54 49 -181 138 -246
171 -161 83 -381 167 -530 202 -119 28 -148 32 -290 41 -55 3 -105 7 -112 9
-6 2 -13 2 -15 1z"/>
</g>
</svg>
